<svg xmlns="http://www.w3.org/2000/svg" xmlns:xlink="http://www.w3.org/1999/xlink" version="1.1" width="256" height="256" viewBox="0 0 256 256" xml:space="preserve">

<defs>
</defs>
<g style="stroke: none; stroke-width: 0; stroke-dasharray: none; stroke-linecap: butt; stroke-linejoin: miter; stroke-miterlimit: 10; fill: none; fill-rule: nonzero; opacity: 1;" transform="translate(1.4065934065934016 1.4065934065934016) scale(2.81 2.81)" >
	<path d="M 59.376 46.8 c -0.144 0 -0.288 -0.031 -0.423 -0.095 c -0.353 -0.164 -0.577 -0.518 -0.577 -0.906 v -7.796 h -2.46 c -2.395 0 -4.343 -1.949 -4.343 -4.344 V 8.362 c 0 -2.395 1.948 -4.344 4.343 -4.344 h 29.74 C 88.052 4.018 90 5.967 90 8.362 V 33.66 c 0 2.395 -1.948 4.344 -4.344 4.344 H 70.25 l -10.232 8.563 C 59.834 46.72 59.606 46.8 59.376 46.8 z M 55.916 6.018 c -1.292 0 -2.343 1.051 -2.343 2.344 V 33.66 c 0 1.292 1.051 2.344 2.343 2.344 h 3.46 c 0.553 0 1 0.448 1 1 v 6.655 l 8.869 -7.422 c 0.18 -0.15 0.407 -0.233 0.642 -0.233 h 15.77 c 1.292 0 2.344 -1.051 2.344 -2.344 V 8.362 c 0 -1.292 -1.052 -2.344 -2.344 -2.344 H 55.916 z" style="stroke: none; stroke-width: 1; stroke-dasharray: none; stroke-linecap: butt; stroke-linejoin: miter; stroke-miterlimit: 10; fill: rgb(0,0,0); fill-rule: nonzero; opacity: 1;" transform=" matrix(1 0 0 1 0 0) " stroke-linecap="round" />
	<path d="M 26.256 32.622 c -0.158 0 -0.319 -0.038 -0.468 -0.117 c -1.472 -0.782 -2.901 -0.782 -4.373 0 c -0.487 0.259 -1.093 0.074 -1.352 -0.414 c -0.259 -0.487 -0.074 -1.093 0.414 -1.352 c 2.073 -1.103 4.177 -1.103 6.25 0 c 0.488 0.259 0.673 0.865 0.414 1.352 C 26.96 32.43 26.614 32.622 26.256 32.622 z" style="stroke: none; stroke-width: 1; stroke-dasharray: none; stroke-linecap: butt; stroke-linejoin: miter; stroke-miterlimit: 10; fill: rgb(0,0,0); fill-rule: nonzero; opacity: 1;" transform=" matrix(1 0 0 1 0 0) " stroke-linecap="round" />
	<path d="M 36.352 32.622 c -0.158 0 -0.319 -0.038 -0.468 -0.117 c -1.472 -0.782 -2.901 -0.782 -4.373 0 c -0.488 0.259 -1.093 0.074 -1.352 -0.414 c -0.259 -0.487 -0.074 -1.093 0.414 -1.352 c 2.073 -1.103 4.177 -1.103 6.25 0 c 0.488 0.259 0.673 0.865 0.414 1.352 C 37.056 32.43 36.71 32.622 36.352 32.622 z" style="stroke: none; stroke-width: 1; stroke-dasharray: none; stroke-linecap: butt; stroke-linejoin: miter; stroke-miterlimit: 10; fill: rgb(0,0,0); fill-rule: nonzero; opacity: 1;" transform=" matrix(1 0 0 1 0 0) " stroke-linecap="round" />
	<path d="M 28.639 45.912 c -0.003 0 -0.006 0 -0.009 0 c -2.353 -0.004 -4.666 -1.518 -6.876 -4.501 c -0.225 -0.303 -0.26 -0.708 -0.09 -1.045 s 0.515 -0.55 0.893 -0.55 h 12.186 c 0.378 0 0.724 0.213 0.894 0.552 c 0.169 0.338 0.134 0.743 -0.093 1.046 C 33.316 44.398 30.993 45.912 28.639 45.912 z M 24.698 41.815 c 1.348 1.391 2.666 2.095 3.935 2.097 c 0.002 0 0.004 0 0.005 0 c 1.271 0 2.595 -0.704 3.953 -2.097 H 24.698 z" style="stroke: none; stroke-width: 1; stroke-dasharray: none; stroke-linecap: butt; stroke-linejoin: miter; stroke-miterlimit: 10; fill: rgb(0,0,0); fill-rule: nonzero; opacity: 1;" transform=" matrix(1 0 0 1 0 0) " stroke-linecap="round" />
	<path d="M 48.989 55.824 l -0.997 -0.186 v -31.51 c 0 -11.089 -8.857 -20.111 -19.745 -20.111 S 8.503 13.04 8.503 24.129 v 31.51 l -0.996 0.186 C 3.157 56.636 0 60.489 0 64.988 v 19.993 c 0 0.553 0.448 1 1 1 h 54.495 c 0.553 0 1 -0.447 1 -1 V 64.988 C 56.495 60.49 53.338 56.636 48.989 55.824 z M 10.503 24.129 c 0 -9.986 7.96 -18.111 17.745 -18.111 s 17.745 8.125 17.745 18.111 v 31.137 l -4.359 -0.812 c -2.375 -0.442 -4.099 -2.558 -4.099 -5.038 l -0.011 -1.085 c 0.365 -0.319 0.736 -0.631 1.081 -0.979 c 0.864 -0.872 1.653 -1.829 2.347 -2.843 c 0.694 -1.014 1.302 -2.102 1.808 -3.234 c 0.907 -2.033 1.073 -4.092 1.25 -6.272 l 0.116 -7.794 c 0.004 -0.37 -0.196 -0.711 -0.521 -0.888 c -4.146 -2.265 -5.796 -4.269 -8.529 -7.588 l -0.634 -0.769 c -0.181 -0.219 -0.448 -0.351 -0.732 -0.362 c -0.289 -0.009 -0.56 0.1 -0.758 0.304 c -3.874 4.01 -9.602 6.213 -19.773 7.607 c -0.505 0.069 -0.877 0.507 -0.864 1.017 l 0.209 8.067 c 0.448 5.46 2.789 10.262 6.438 13.63 v 1.2 c 0 2.47 -1.724 4.585 -4.099 5.027 l -4.359 0.812 V 24.129 z M 37.183 45.943 c -1.875 1.893 -4.086 3.315 -6.569 4.23 c -1.526 0.563 -3.207 0.563 -4.732 0 c -6.504 -2.396 -10.753 -8.281 -11.362 -15.685 l -0.183 -7.12 c 9.472 -1.377 15.201 -3.538 19.255 -7.292 c 2.643 3.209 4.451 5.384 8.527 7.705 l -0.07 6.652 l -0.033 0.408 c -0.169 2.092 -0.315 3.898 -1.083 5.619 c -0.456 1.021 -1.005 2.004 -1.632 2.919 C 38.675 44.294 37.962 45.157 37.183 45.943 z M 25.19 52.051 c 0.986 0.363 2.022 0.545 3.058 0.545 s 2.072 -0.182 3.058 -0.545 c 1.522 -0.561 2.94 -1.309 4.266 -2.205 c 0.166 2.85 1.971 5.298 4.567 6.258 c -2.518 6.995 -6.502 12.728 -11.89 17.036 c -5.388 -4.308 -9.372 -10.041 -11.89 -17.035 c 2.607 -0.963 4.418 -3.43 4.57 -6.295 C 22.233 50.722 23.654 51.485 25.19 52.051 z M 7.873 57.791 l 6.529 -1.216 c 2.737 7.716 7.176 13.99 13.238 18.627 c 0.18 0.138 0.394 0.206 0.608 0.206 s 0.428 -0.068 0.608 -0.206 c 6.061 -4.638 10.501 -10.911 13.238 -18.627 l 6.529 1.216 c 3.403 0.635 5.873 3.661 5.873 7.197 v 0.574 l -8.13 7.469 c -1.745 1.602 -2.745 3.893 -2.745 6.285 v 4.665 H 12.875 v -4.665 c 0 -2.392 -1 -4.683 -2.745 -6.285 L 2 65.563 v -0.574 C 2 61.452 4.47 58.426 7.873 57.791 z M 2 68.279 l 6.777 6.225 c 1.333 1.226 2.098 2.979 2.098 4.813 v 4.665 H 2 V 68.279 z M 45.62 83.981 v -4.665 c 0 -1.834 0.765 -3.588 2.099 -4.813 l 6.776 -6.225 v 15.703 H 45.62 z" style="stroke: none; stroke-width: 1; stroke-dasharray: none; stroke-linecap: butt; stroke-linejoin: miter; stroke-miterlimit: 10; fill: rgb(0,0,0); fill-rule: nonzero; opacity: 1;" transform=" matrix(1 0 0 1 0 0) " stroke-linecap="round" />
	<path d="M 77.58 26.555 l -2.37 -13.042 c -0.058 -0.317 -0.265 -0.587 -0.556 -0.725 c -0.292 -0.139 -0.632 -0.127 -0.913 0.03 l -11.053 6.141 l -3.519 0.64 c -1.916 0.348 -3.23 2.069 -2.993 3.919 c 0.124 0.966 0.623 1.814 1.407 2.388 c 0.774 0.567 1.762 0.794 2.701 0.622 l 1.173 -0.213 l 0.709 3.903 c 0.146 0.802 0.595 1.5 1.266 1.964 c 0.517 0.357 1.116 0.543 1.731 0.543 c 0.183 0 0.367 -0.016 0.552 -0.05 c 1.656 -0.301 2.759 -1.893 2.458 -3.549 l -0.492 -2.708 l 8.768 1.304 c 0.05 0.007 0.099 0.011 0.147 0.011 c 0.269 0 0.528 -0.108 0.719 -0.304 C 77.539 27.198 77.639 26.873 77.58 26.555 z M 66.206 29.483 c 0.104 0.571 -0.276 1.121 -0.848 1.224 c -0.274 0.052 -0.556 -0.009 -0.787 -0.17 c -0.231 -0.16 -0.386 -0.4 -0.437 -0.677 l -0.71 -3.903 l 0.519 -0.094 l 1.649 0.245 L 66.206 29.483 z M 64.075 23.86 c -0.049 -0.007 -0.099 -0.011 -0.147 -0.011 c -0.06 0 -0.12 0.005 -0.179 0.016 l -3.821 0.695 c -0.412 0.076 -0.824 -0.02 -1.162 -0.268 c -0.337 -0.247 -0.552 -0.612 -0.604 -1.029 c -0.101 -0.781 0.513 -1.542 1.366 -1.697 l 3.682 -0.669 c 0.107 -0.02 0.211 -0.057 0.307 -0.11 l 9.977 -5.543 l 1.871 10.295 L 64.075 23.86 z" style="stroke: none; stroke-width: 1; stroke-dasharray: none; stroke-linecap: butt; stroke-linejoin: miter; stroke-miterlimit: 10; fill: rgb(0,0,0); fill-rule: nonzero; opacity: 1;" transform=" matrix(1 0 0 1 0 0) " stroke-linecap="round" />
	<path d="M 79.109 22.315 c -0.475 0 -0.896 -0.338 -0.983 -0.821 c -0.099 -0.543 0.263 -1.064 0.806 -1.163 c 0.302 -0.055 0.504 -0.346 0.448 -0.648 c -0.055 -0.301 -0.333 -0.506 -0.647 -0.448 c -0.542 0.095 -1.064 -0.262 -1.162 -0.805 c -0.1 -0.543 0.261 -1.064 0.805 -1.163 c 1.379 -0.25 2.72 0.671 2.973 2.058 c 0.252 1.388 -0.672 2.721 -2.059 2.973 C 79.229 22.31 79.169 22.315 79.109 22.315 z" style="stroke: none; stroke-width: 1; stroke-dasharray: none; stroke-linecap: butt; stroke-linejoin: miter; stroke-miterlimit: 10; fill: rgb(0,0,0); fill-rule: nonzero; opacity: 1;" transform=" matrix(1 0 0 1 0 0) " stroke-linecap="round" />
	<path d="M 79.822 26.239 c -0.475 0 -0.896 -0.338 -0.983 -0.821 c -0.099 -0.543 0.263 -1.064 0.806 -1.163 c 1.194 -0.217 2.233 -0.886 2.924 -1.884 c 0.691 -0.998 0.952 -2.205 0.735 -3.4 c -0.218 -1.194 -0.887 -2.232 -1.885 -2.923 c -0.998 -0.691 -2.208 -0.953 -3.399 -0.735 c -0.542 0.095 -1.064 -0.261 -1.162 -0.805 c -0.1 -0.543 0.261 -1.064 0.805 -1.163 c 1.716 -0.313 3.459 0.063 4.896 1.058 c 1.438 0.995 2.401 2.491 2.714 4.21 c 0.313 1.72 -0.063 3.459 -1.059 4.896 c -0.995 1.438 -2.49 2.401 -4.211 2.713 C 79.941 26.234 79.882 26.239 79.822 26.239 z" style="stroke: none; stroke-width: 1; stroke-dasharray: none; stroke-linecap: butt; stroke-linejoin: miter; stroke-miterlimit: 10; fill: rgb(0,0,0); fill-rule: nonzero; opacity: 1;" transform=" matrix(1 0 0 1 0 0) " stroke-linecap="round" />
</g>
</svg>