<?xml version="1.0" encoding="UTF-8" standalone="no"?>
<!-- Created with Inkscape (http://www.inkscape.org/) -->

<svg
   version="1.1"
   id="svg2"
   width="2829.3333"
   height="2829.3333"
   viewBox="0 0 2829.3333 2829.3333"
   sodipodi:docname="vecteezy_young-woman-cartoon_.eps"
   xmlns:inkscape="http://www.inkscape.org/namespaces/inkscape"
   xmlns:sodipodi="http://sodipodi.sourceforge.net/DTD/sodipodi-0.dtd"
   xmlns="http://www.w3.org/2000/svg"
   xmlns:svg="http://www.w3.org/2000/svg">
  <defs
     id="defs6" />
  <sodipodi:namedview
     id="namedview4"
     pagecolor="#ffffff"
     bordercolor="#000000"
     borderopacity="0.25"
     inkscape:showpageshadow="2"
     inkscape:pageopacity="0.0"
     inkscape:pagecheckerboard="0"
     inkscape:deskcolor="#d1d1d1" />
  <g
     id="g8"
     inkscape:groupmode="layer"
     inkscape:label="ink_ext_XXXXXX"
     transform="matrix(1.3333333,0,0,-1.3333333,0,2829.3333)">
    <g
       id="g10"
       transform="scale(0.1)">
      <path
         d="m 14081.4,4073.4 c -151,-271.6 -308.5,-541.1 -386.4,-842.6 -104.6,-405.6 -36.3,-883.7 76.3,-1353.9 4.8,1.6 9.1,3.3 13.9,4.8 382.1,138.8 753,302.6 1110,488.9 -73.1,184.6 -155.8,374 -242.8,563.5 -175,378.3 -369.3,759.4 -571,1139.3"
         style="fill:#fde5ec;fill-opacity:1;fill-rule:nonzero;stroke:none"
         id="path12" />
      <path
         d="m 7574.2,4280.4 c -16.01,210.8 -28.82,413.6 -38.41,616.4 -144.63,-266.3 -286.04,-533.1 -423.19,-800.5 -202.79,-396.4 -398.11,-794.5 -572.6,-1190 -79.48,-180.3 -154.74,-360.2 -221.46,-535.7 19.76,-10.7 40.02,-21.4 59.78,-31.5 154.23,-79 311.11,-154.2 470.67,-224.7 216.13,-95.5 436.52,-183.6 660.66,-262.5 85.36,811.1 128.59,1568.9 64.55,2428.5"
         style="fill:#fde5ec;fill-opacity:1;fill-rule:nonzero;stroke:none"
         id="path14" />
      <path
         d="m 4643.47,3489.6 c 53.37,-44.8 107.25,-88.6 161.7,-131.8 18.66,61.4 38.41,122.2 58.15,183 149.96,461.1 314.83,906.2 486.16,1345.9 153.66,392.7 312.69,780.7 476.52,1165.4 0.14,0.4 0.29,0.7 0.44,1.1 -28.05,19.3 -56.43,37.9 -84.19,58 -64.34,46.5 -131.72,100 -152.28,176.6 -23.26,86.8 20.1,176.1 63.23,254.8 290.24,530 623,924.1 986.88,1392 241.06,310 816.73,930.3 1171.25,1192.7 39.45,29.2 71.14,50.2 97.84,65.2 59.01,37 126.47,57.2 204.01,58.3 73.05,0.5 144.51,-10.2 214.89,-28.3 271.54,90.6 587.66,121.4 789.62,159.1 104.38,19.5 209.19,45.9 310.4,81.6 l -19.08,42.6 c -6.4,14.4 0,31.2 14.38,37.7 14.49,6.4 31.18,-0.1 37.64,-14.4 l 20.59,-46 c 18.54,7.3 36.96,14.9 55.14,23 -5.04,11.3 -2.76,24.8 7.14,33.2 12.03,10.2 29.99,8.6 40.14,-3.3 1.45,-1.7 3.05,-3.3 4.5,-5 22.74,11.3 45.07,23.3 67.05,36 -3.25,1.3 -6.36,2.9 -9.59,4.2 -348.58,142.5 -747.17,85.9 -1106.39,-26.9 -374.1,-118.3 -755.25,-210.8 -1143.02,-272.8 -347.11,-55.5 -779.95,42.7 -963.41,378.2 -94.4,172.6 -110.28,380.2 -76.52,574 33.74,193.9 113.94,376.5 203.13,551.9 57.83,113.7 120.78,228.5 137.6,355 34.98,262.8 -111.39,437.2 -226.47,646.1 -100,181.6 -130.55,427.6 -134.3,631.2 -7.82,423.7 138.75,854.2 428.35,1167.1 144.24,155.9 316.95,282.4 471.28,428.2 221.19,209.1 404.26,458.3 537.54,731.8 44.84,92.1 84.27,194.1 123.43,299.5 101.02,397.2 287.71,769.4 513.28,1112.1 319,484.6 704.91,743.8 1250.09,894.2 -131.33,139.2 -199.31,315.4 -219.55,502.2 -33.32,307.7 62.81,644.1 218.31,890.7 133.61,211.9 367.75,379.1 617.55,360.7 108.7,-8.1 215.9,-50.1 323.8,-35 72.6,10.1 138.8,45.2 206.7,72.6 211.2,85.2 460.5,94 661.6,-12.9 201,-106.9 338.1,-341.3 297,-565.3 -17.7,-96.3 -65.1,-196.8 -27.4,-287.1 39.8,-95.3 154.3,-131 230,-201.2 134.6,-124.8 125.5,-352.9 22.8,-505.1 -2.7,-3.8 -5.8,-7.2 -8.5,-11 439,-47.2 820.3,-144.1 1192,-388.6 305.4,-200.9 542.2,-489.2 692.1,-821.5 94.3,-209.1 155.4,-431.2 186.7,-658.3 56,-348.9 59.1,-705.7 289.4,-991.8 113.4,-140.9 244.7,-274.7 304.2,-445.5 105.9,-304.2 -41.8,-632.1 -182.1,-922 -140.3,-289.9 -278.4,-625.5 -155.6,-923.2 119.9,-290.4 441.7,-432.1 669.2,-648.8 247.7,-236.1 407.9,-607.5 427.5,-972.9 19.2,-358.4 -96.9,-711 -398.2,-924.9 -698.1,-495.5 -1417,33.3 -2140.7,95.7 -424.8,36.7 -838.7,-107.3 -1246.9,-238.3 4,-1.7 7.7,-4 10.7,-7.5 8.7,-10.3 8.4,-24.6 0.8,-35 50.4,-37 105.5,-67.7 163.7,-93.3 -0.3,13.1 -0.2,25.5 -0.6,38.8 -0.4,15.7 12.1,28.7 27.8,29.2 18.1,0.1 28.8,-12.1 29.2,-27.8 0.5,-21.7 0.5,-42.2 0.9,-63.6 195,-73.1 416.6,-98.8 609.6,-124.4 161.4,-21.3 352.6,-26.4 521,-75.9 88.6,-26 170.8,-64.6 239.1,-124 v 0 c 129.7,21.8 255.7,19.7 358.7,-41.7 v 0 c 1,-0.5 2.3,-0.6 3.3,-1.1 282.1,-138.9 404.6,-317.5 598.7,-511 267.5,-266.7 424.5,-513.3 658.2,-808.6 334.6,-428.5 659.6,-821.2 919.7,-1297.3 26.9,-49.2 54.5,-100.8 56.2,-156.9 3.4,-116.3 -101.3,-203.8 -197.9,-268.7 -50.6,-34 -101.7,-66.1 -152.7,-98.6 0.1,-0.3 0.2,-0.6 0.3,-0.9 116.4,-266.8 230,-535.2 341.6,-806.3 178.7,-436.5 351.1,-878.9 509.1,-1337.3 27.7,-81.7 55.5,-163.3 82.1,-246 2131.4,1701.8 3497,4323 3497,7261.7 0,5131 -4159.7,9290.1 -9290.7,9290.1 -5130.36,0 -9290.06,-4159.1 -9290.06,-9290.1 0,-2860.8 1293.54,-5419.6 3327.23,-7123.5"
         style="fill:#fde5ec;fill-opacity:1;fill-rule:nonzero;stroke:none"
         id="path16" />
      <path
         d="m 10182.7,18399 c 20,45.1 33.6,-38.3 29.8,-55.1 -45.7,-199.4 -161.6,-881.3 202.2,-868.4 25.6,0.9 24.5,-74.1 5.3,-83 -203.1,-94.4 -275.4,184.4 -301.2,330.7 -39.2,221.7 -27.9,468.2 63.9,675.8 z m 913,273.2 c 292.4,-222.6 314,-742.1 176.8,-1051.5 -16.3,-36.8 -31.2,29.6 -26.1,45.7 112.8,358.4 17.9,622.3 -163.8,928.5 -6.3,10.5 -10.4,95.2 13.1,77.3 z m 818.9,-1415.8 c 23,-2.1 45.6,-4.6 68.3,-7 2.7,3.8 5.8,7.2 8.5,11 102.7,152.2 111.8,380.3 -22.8,505.1 -75.7,70.2 -190.2,105.9 -230,201.2 -37.7,90.3 9.7,190.8 27.4,287.1 41.1,224 -96,458.4 -297,565.3 -201.1,106.9 -450.4,98.1 -661.6,12.9 -67.9,-27.4 -134.1,-62.5 -206.7,-72.6 -107.9,-15.1 -215.1,26.9 -323.8,35 -249.8,18.4 -483.94,-148.8 -617.55,-360.7 -155.5,-246.6 -251.63,-583 -218.31,-890.7 20.24,-186.8 88.22,-363 219.55,-502.2 27.81,7.6 55.69,15.3 84.35,22.4 706.46,175.5 1442.66,262.5 2169.66,193.2"
         style="fill:#482c5d;fill-opacity:1;fill-rule:nonzero;stroke:none"
         id="path18" />
      <path
         d="m 14155.4,13891.9 c 114,-185.6 114.6,-406.3 75.3,-616.3 -80.2,-428.3 -307.5,-780.8 -219.8,-1236.8 133.5,-694.5 845.8,-984.3 1059.7,-1628.4 5.6,-16.8 -11,-87.1 -26.6,-48.6 -228.9,563.3 -839.3,845.7 -1032.7,1434.1 -73.8,224.8 -96.2,466.1 -64.6,700.7 62.3,462.8 364.5,834 186.6,1323.6 -4.7,12.9 2.7,103.3 22.1,71.7 z M 14433.5,9629 c -449.9,85.2 -826.9,382.4 -1015.9,801.8 -223.9,496.7 -104.9,1072.4 -52.7,1592.7 5.7,56.9 38,27.4 38.8,-12.5 10.8,-528 -174.9,-1058.1 84.2,-1557.2 192.7,-371.2 543.8,-630.4 945.2,-735.9 27.6,-7.2 23.9,-93.4 0.4,-88.9 z m -2064,144.9 c 2,-45.5 -36.1,-69.7 -42.2,-13.5 -36,332.3 -46.9,703.3 38.3,1029.1 11.5,44 34,3.8 32.9,-21.7 -14.6,-333.5 -43.9,-659 -29,-993.9 z m 1497.6,4131.5 c -63.9,-162.2 -146,-324.4 -282.4,-433.1 -4,26.6 -9.2,53.6 -15.1,80.6 -100.6,-1561.3 -762.7,-2876.2 -2338.7,-2996.2 9.4,-164.7 30.2,-346.7 65.7,-518.7 2.3,-8.7 3.3,-19 5.7,-29.2 l 2.3,-8.7 c 52.6,-243.1 136.9,-461 257.6,-575.9 8.2,-7.7 16.8,-14.7 25.3,-22 1.2,1 2.3,1.9 3.5,2.8 8.5,7.2 19.9,8.3 29.5,4.3 408.2,131 822.1,275 1246.9,238.3 723.7,-62.4 1442.6,-591.2 2140.7,-95.7 301.3,213.9 417.4,566.5 398.2,924.9 -19.6,365.4 -179.8,736.8 -427.5,972.9 -227.5,216.7 -549.3,358.4 -669.2,648.8 -122.8,297.7 15.3,633.3 155.6,923.2 140.3,289.9 288,617.8 182.1,922 -59.5,170.8 -190.8,304.6 -304.2,445.5 -230.3,286.1 -233.4,642.9 -289.4,991.8 68.3,-495.9 -5.4,-1015.7 -186.6,-1475.6"
         style="fill:#482c5d;fill-opacity:1;fill-rule:nonzero;stroke:none"
         id="path20" />
      <path
         d="m 9167.87,9907.5 c -17.59,-42.6 -35.3,34.1 -29.97,52.5 86.48,296.8 -57.98,606.5 -90.22,900.9 -2.93,26.7 18.41,90.6 35.95,36.1 92.13,-286.2 205.04,-697 84.24,-989.5 z m -1174.79,-151 c -16.46,-27.3 -32.49,48.6 -22.8,66.3 179.71,327.4 293.06,652.3 197.93,1033 -56.25,225.1 -157.34,436.5 -209.84,662.7 -61.29,263.9 -76.98,545.8 67.09,784.6 18.58,30.9 28.98,-56.4 23.08,-71.5 -224.81,-575.6 194.43,-1058 219.74,-1621.5 14.15,-315.1 -115.86,-589.7 -275.2,-853.6 z m -1033.23,405.2 c -20.48,-18.3 -34.12,73.1 -16.93,91.4 249.43,264.6 412.89,576.6 440.22,944.3 28.92,388.9 -135.88,652.8 -301.63,983.2 -213.69,426 12.82,797.1 299.5,1122.8 20.55,23.3 30,-53.2 16.53,-69.1 -58.29,-68.9 -117.78,-137.8 -169.01,-212.3 -123.66,-179.8 -133.03,-240.8 -135.59,-479.2 -2.56,-238.9 18.71,-285.5 121.53,-471.7 33.01,-59.7 54.4,-92.1 82.71,-153.5 82.09,-178.1 126.21,-373.6 134.15,-569.2 17.86,-439.7 -139.12,-891.2 -471.48,-1186.7 z m 3237.75,395.4 c 0.9,6 1.9,12.1 1.3,17.9 1.9,19 2.9,37.8 4.5,56.7 -1139.45,249.5 -1737.25,1022.2 -1942.67,2048.9 -3.5,0.5 -7.09,1.6 -10.28,2.9 -8.09,3.3 -15.72,7.1 -23.52,10.7 -17.57,-57.6 -70.5,-99.8 -133.9,-99.8 -77.66,0 -140.63,63 -140.63,140.7 0,53.5 30.3,99.5 74.34,123.3 -9.33,11.7 -18.36,23.5 -26.91,35.6 -123.89,174.2 -180.04,381.1 -157.42,580.1 9.08,80 32.95,161.5 86.19,226 -0.14,-0.2 -0.28,-0.3 -0.42,-0.4 -148.69,401.9 -142.33,864.5 -44.94,1281.8 4.15,17.8 9.47,35.3 13.98,53 -39.16,-105.4 -78.59,-207.4 -123.43,-299.5 -133.28,-273.5 -316.35,-522.7 -537.54,-731.8 -154.33,-145.8 -327.04,-272.3 -471.28,-428.2 -289.6,-312.9 -436.17,-743.4 -428.35,-1167.1 3.75,-203.6 34.3,-449.6 134.3,-631.2 115.08,-208.9 261.45,-383.3 226.47,-646.1 -16.82,-126.5 -79.77,-241.3 -137.6,-355 -89.19,-175.4 -169.39,-358 -203.13,-551.9 -33.76,-193.8 -17.88,-401.4 76.52,-574 183.46,-335.5 616.3,-433.7 963.41,-378.2 387.77,62 768.92,154.5 1143.02,272.8 359.22,112.8 757.81,169.4 1106.39,26.9 3.23,-1.3 6.34,-2.9 9.59,-4.2 42.73,24.7 84.28,51.5 123.43,82.1 295.68,231.1 365.68,557.4 418.58,908"
         style="fill:#482c5d;fill-opacity:1;fill-rule:nonzero;stroke:none"
         id="path22" />
      <path
         d="m 15808.8,4934.7 c -111.6,271.1 -225.2,539.5 -341.6,806.3 -0.1,0.3 -0.2,0.6 -0.3,0.9 -330.5,-210.8 -670.8,-393.5 -1022.6,-555.4 -0.6,-41.1 -1.7,-82.7 -4.3,-123.7 -24,-366.6 -186.8,-679.4 -358.6,-989.4 201.7,-379.9 396,-761 571,-1139.3 87,-189.5 169.7,-378.9 242.8,-563.5 246.5,128 487.2,267.8 719.8,417.3 271.7,174.5 533.7,362.3 785,563.5 -26.6,82.7 -54.4,164.3 -82.1,246 -158,458.4 -330.4,900.8 -509.1,1337.3"
         style="fill:#fbc1ab;fill-opacity:1;fill-rule:nonzero;stroke:none"
         id="path24" />
      <path
         d="m 8682.05,9096.5 c 330.68,-131.2 685.4,-238.4 1052.37,-317.9 -2.86,6.4 -5.81,13.2 -8.65,19.6 l -297.68,665 c -101.21,-35.7 -206.02,-62.1 -310.4,-81.6 -201.96,-37.7 -518.08,-68.5 -789.62,-159.1 0.05,0 0.1,0 0.16,0 120.62,-29.9 237.47,-80.1 353.82,-126"
         style="fill:#fbc1ab;fill-opacity:1;fill-rule:nonzero;stroke:none"
         id="path26" />
      <path
         d="m 9803.1,8764.1 c 0.04,0 0.07,0 0.11,0 643.99,-133.9 1322.69,-183 1971.99,-130.8 18.7,200.1 25.2,408 20.5,640.2 -58.2,25.6 -113.3,56.3 -163.7,93.3 -1.3,-1.8 -2.3,-3.7 -4.1,-5.1 -281.3,-239.5 -586.8,-357.2 -929.2,-357.2 -58.9,0 -118.9,3.5 -180.1,10.5 -399.1,45.3 -755.63,221.8 -978.01,484.1 -1.78,2.1 -2.76,4.6 -3.83,7 -18.18,-8.1 -36.6,-15.7 -55.14,-23 l 296.16,-661.7 c 8.3,-18.6 16.84,-38 25.32,-57.3"
         style="fill:#fbc1ab;fill-opacity:1;fill-rule:nonzero;stroke:none"
         id="path28" />
      <path
         d="m 11832.9,8638.1 c 0.3,0 0.5,0 0.8,0 325,29.4 642,83.8 943.5,166.5 131.2,35.8 290.8,95.5 445.5,121.2 -68.3,59.4 -150.5,98 -239.1,124 -168.4,49.5 -359.6,54.6 -521,75.9 -193,25.6 -414.6,51.3 -609.6,124.4 3.8,-220.6 -2.6,-420.1 -20.1,-612"
         style="fill:#fbc1ab;fill-opacity:1;fill-rule:nonzero;stroke:none"
         id="path30" />
      <path
         d="m 10525.1,9071.5 c 404,-45.9 741.9,59.2 1062.4,330.7 -8.5,7.3 -17.1,14.3 -25.3,22 -120.7,114.9 -205,332.8 -257.6,575.9 -180.1,51.4 -354.9,109.3 -525.3,183.8 -199.9,88.2 -413.4,210.8 -557,363.6 -8.2,8.2 -16.5,17.8 -23.4,27.5 0.6,-5.8 -0.4,-11.9 -1.3,-17.9 -52.9,-350.6 -122.9,-676.9 -418.58,-908 -39.15,-30.6 -80.7,-57.4 -123.43,-82.1 -21.98,-12.7 -44.31,-24.7 -67.05,-36 213.41,-248.7 554.16,-416 936.56,-459.5"
         style="fill:#fbc1ab;fill-opacity:1;fill-rule:nonzero;stroke:none"
         id="path32" />
      <path
         d="m 11296.6,10038 c -35.5,172 -56.3,354 -65.7,518.7 -138.9,-10.6 -284.2,-12.9 -437.6,-4.3 -211.3,12 -407.2,39.3 -589.9,79.3 -1.6,-18.9 -2.6,-37.7 -4.5,-56.7 6.9,-9.7 15.2,-19.3 23.4,-27.5 143.6,-152.8 357.1,-275.4 557,-363.6 170.4,-74.5 345.2,-132.4 525.3,-183.8 l -2.3,8.7 c -2.4,10.2 -3.4,20.5 -5.7,29.2"
         style="fill:#f1947f;fill-opacity:1;fill-rule:nonzero;stroke:none"
         id="path34" />
      <path
         d="m 13122.2,3086.7 c -348.1,-86.2 -673.3,5.7 -1004.4,109.4 -168,52.6 -335.5,82.4 -511.9,66.8 -150,-13.3 -287.7,-75.7 -436,-90.1 -16.3,-1.6 -11.4,51.9 -3.1,59 241.9,206.4 610.2,195 901.2,111.6 179.4,-51.3 347.8,-124.3 533.7,-152 173.2,-25.8 348.2,-7.7 520.2,-35.7 18.1,-3 17.6,-64.7 0.3,-69 z m 572.8,144.1 c 77.9,301.5 235.4,571 386.4,842.6 171.8,310 334.6,622.8 358.6,989.4 2.6,41 3.7,82.6 4.3,123.7 -262.1,-120.7 -530.3,-230.6 -805.6,-332.8 -128.4,-47.7 -285.9,-90.2 -391.2,-2.6 -153.2,127.5 -234.9,374.2 -320,550.7 -101.6,210.8 -194.5,426 -273.2,646.5 -158.8,445.2 -259.9,914.4 -251.5,1388.9 6.2,354.2 82.4,726.4 319.7,989.5 49.7,55.2 108.9,111.7 174.3,163.7 159,126.5 515.4,371.8 684.6,293.7 v 0 c -103,61.4 -229,63.5 -358.7,41.7 v 0 c -154.7,-25.7 -314.3,-85.4 -445.5,-121.2 -301.5,-82.7 -618.5,-137.1 -943.5,-166.5 -0.3,0 -0.5,0 -0.8,0 -16.2,-176.9 -41.4,-348.2 -77.7,-525.2 -51.6,-252.3 -147.8,-722 -487,-841.3 -82.3,-28.9 -159.9,-41.8 -233.1,-41.8 -397.6,0 -662.9,379.9 -832,622.1 l -27.5,39.2 c -144.7,205.9 -267.54,488.8 -375.89,738.4 -22.38,51.5 -44.06,101.3 -65.29,149.1 -366.97,79.5 -721.69,186.7 -1052.37,317.9 -116.35,45.9 -233.2,96.1 -353.82,126 -0.06,0 -0.11,0 -0.16,0 -70.38,18.1 -141.84,28.8 -214.89,28.3 -77.54,-1.1 -145,-21.3 -204.01,-58.3 173.63,97.6 119.84,-79.1 380.45,-199.3 68.94,-31.8 139.03,-72.4 210.72,-121.6 205.85,-141.3 370.79,-337 495.78,-553 269.07,-465.2 -45.55,-1184.7 -184.82,-1655.4 -164.06,-554.5 -354.35,-1106.3 -603.46,-1628.9 -29.23,-61.1 -290.81,21.3 -535.55,114.2 -45.85,-83.7 -91.71,-168 -136.5,-251.7 9.59,-202.8 22.4,-405.6 38.41,-616.4 64.04,-859.6 20.81,-1617.4 -64.55,-2428.5 968.52,-342.6 2010.74,-528.3 3096.65,-528.3 1032.6,0 2026.3,168.1 2954.3,478.6 70.4,24.6 140.8,48.6 210.7,74.7 -112.6,470.2 -180.9,948.3 -76.3,1353.9"
         style="fill:#8b72c0;fill-opacity:1;fill-rule:nonzero;stroke:none"
         id="path36" />
      <path
         d="m 9803.21,8764.1 c -0.04,0 -0.07,0 -0.11,0 16.01,-36.4 32.22,-73.6 48.88,-112 107.26,-247.1 228.82,-527.1 370.22,-728.2 l 27.6,-39.4 c 203.3,-291.2 510.7,-731.2 999.5,-559.2 308.8,108.6 400.8,557.7 450.2,799 35.1,171.5 59.7,337.7 75.7,509 -649.3,-52.2 -1328,-3.1 -1971.99,130.8"
         style="fill:#8b72c0;fill-opacity:1;fill-rule:nonzero;stroke:none"
         id="path38" />
      <path
         d="m 8178.89,13739.8 c 0.71,27.3 2.6,54.3 3.94,81.5 -91.45,-8.8 -169.62,-49.6 -254.23,-121.2 -53.24,-64.5 -77.11,-146 -86.19,-226 -22.62,-199 33.53,-405.9 157.42,-580.1 8.55,-12.1 17.58,-23.9 26.91,-35.6 19.84,10.7 42.18,17.3 66.29,17.3 77.69,0 140.63,-63 140.63,-140.6 0,-14.3 -2.76,-27.8 -6.73,-40.9 7.8,-3.6 15.43,-7.4 23.52,-10.7 3.19,-1.3 6.78,-2.4 10.28,-2.9 -66.02,329.9 -91.75,685.9 -81.84,1059.2"
         style="fill:#fbc1ab;fill-opacity:1;fill-rule:nonzero;stroke:none"
         id="path40" />
      <path
         d="m 10341.7,13292.5 c 103.4,-0.8 186.4,-104 185.4,-230.5 -1,-126.5 -85.6,-228.4 -189,-227.6 -103.4,0.8 -186.4,104.1 -185.4,230.5 1,126.5 85.6,228.4 189,227.6 z m -432.08,353.6 -2.82,-1.5 c -18.11,-10.2 -41,-3.7 -51.14,14.4 -9.86,17.6 -3.94,39.8 13.06,50.4 56.51,34.8 112.3,51.6 168.88,67.9 56.6,15.5 113.5,27.2 170.9,36.4 57.5,9.2 115.3,15.9 174.2,18.6 58.9,2.5 118.2,2.6 181.7,-8.9 28.6,-5.1 47.6,-32.5 42.4,-61.2 -5.1,-28.6 -32.6,-47.6 -61.2,-42.4 l -2.2,0.4 -1.4,0.4 c -47.8,10.9 -102.6,14 -156.7,14 -54.5,-0.1 -109.7,-4 -164.5,-10.3 -54.8,-6.4 -109.5,-15.1 -162.9,-27.3 -52.7,-12.1 -107.04,-27.8 -148.28,-50.9 z m 1044.18,-1589.9 c 200.5,-8.4 400.5,-25.8 600.9,-34.2 100.2,-4.2 200.4,-6.4 300.6,-4 28.9,0.7 69.6,6.8 108.2,8.6 74.8,3.3 141.9,-9.6 101,-109.8 -41.1,-100.9 -84.6,-187.9 -169.3,-259.6 -103.1,-87.3 -238.4,-142.3 -374.4,-139.9 -213.7,3.6 -504.8,107.7 -606,355 -27.9,68.3 -78.4,188.9 39,183.9 z m 389.1,832.5 c 86,32.3 175.6,34.7 252.4,6.9 66.8,-24.2 117.6,-68.3 143.1,-124.2 23.4,-51.3 24.1,-109 1.8,-166.7 -41.3,-107.4 -143.8,-165.9 -286.1,-165.9 -22.6,0 -46.2,1.5 -70.7,4.5 -21.5,2.6 -36.7,22.1 -34.2,43.6 2.7,21.4 22.6,36.7 43.6,34 66.5,-8.2 226.2,-13.5 274.5,111.9 14.6,38.2 14.6,73.9 -0.1,106.2 -16.7,36.6 -51.7,66.1 -98.5,83.1 -59.4,21.5 -129.7,19.2 -198.3,-6.6 -20.1,-7.6 -42.8,2.6 -50.3,22.8 -7.7,20.2 2.6,42.8 22.8,50.4 z m 1056.1,923.2 2.4,0.4 c 64,8.3 123.2,5.1 182,-0.3 58.6,-5.7 116.1,-15.3 173,-27.3 56.9,-12.2 113.1,-26.7 168.8,-45 55.7,-19.1 110.6,-38.7 165.3,-76.4 17.1,-11.8 21.4,-35.1 9.6,-52.3 -11.4,-16.6 -33.9,-21.1 -50.9,-10.5 l -2.8,1.8 c -40,25.1 -93.5,43.5 -145.5,58.3 -52.7,14.7 -106.9,26.3 -161.3,35.3 -54.4,9.1 -109.3,15.8 -163.7,18.6 -54.1,2.8 -109,2.4 -157.3,-6.1 l -1.2,-0.2 c -28.6,-5.1 -56,14 -61.1,42.6 -5.1,28.6 14,56 42.7,61.1 z m 333.2,-996.4 c -103.3,0.8 -186.4,104 -185.4,230.5 1,126.5 85.7,228.4 189.1,227.6 103.4,-0.8 186.4,-104.1 185.4,-230.6 -1,-126.5 -85.6,-228.3 -189.1,-227.5 z m -1501.3,-2258.8 c 1576,120 2238.1,1434.9 2338.7,2996.2 -54.5,249.3 -190.2,504 -433.1,603.9 -116.4,47.7 -242.9,64.4 -364.5,96.8 -357.5,95.4 -674.3,335.2 -863.4,653.3 -382.1,-406.5 -839.2,-742.2 -1341.4,-985.2 -108.9,-52.7 -233.8,-101.8 -347.4,-60.6 -113.7,41.2 -170.8,219.3 -68.2,283.2 -300.78,-184.9 -613.99,-408 -939.67,-545.7 -259.46,-109.8 -416.69,-22.3 -637.51,111.5 -75.86,46 -157.93,81.6 -244.36,100.7 -54.12,12 -102.17,14.8 -147.23,10.5 -1.34,-27.2 -3.23,-54.2 -3.94,-81.5 -9.91,-373.3 15.82,-729.3 81.84,-1059.2 205.42,-1026.7 803.22,-1799.4 1942.67,-2048.9 182.7,-40 378.6,-67.3 589.9,-79.3 153.4,-8.6 298.7,-6.3 437.6,4.3"
         style="fill:#fbc1ab;fill-opacity:1;fill-rule:nonzero;stroke:none"
         id="path42" />
      <path
         d="m 12163.2,16763.7 c 531.9,-127.9 1003.1,-543.4 1304.9,-987.6 255.7,-376.3 497,-911.3 320.9,-1366.2 -7.9,-20.2 -16.8,13.1 -15.8,20.6 152.8,1095.3 -746.5,1815.8 -1614.6,2252.4 -18.8,9.4 -18.5,86.4 4.6,80.8 z m 1247.9,-2383.9 c -291.2,348.9 -655.9,526.4 -1008.5,797.6 -255.6,196.5 -451.6,439.6 -488.9,766 -1.8,15.7 13.3,54.6 21.6,21.5 194.1,-779.9 1159.9,-849 1499.8,-1511.6 7.7,-15 1.8,-104.3 -24,-73.5 z m -1884.3,1431.8 c -221,-508.8 -681.9,-1124.1 -1191.3,-1371 -19.5,-9.5 -19.9,45.5 -10.6,54.8 217.9,220 462.8,406.2 664.7,643.9 198.5,233.7 347.6,491.3 510.8,749 21.5,34 34,-59.2 26.4,-76.7 z M 9085.61,14040.7 c -14.65,-42.8 -37.49,33.1 -30.97,53.8 356.66,1131.8 1597.36,1587.9 2183.56,2564.6 7,11.8 13.2,-22.3 9.4,-29.6 -530.8,-1023.3 -1778.65,-1468 -2161.99,-2588.8 z m -731.12,340.4 c -0.11,-38.7 -27.89,-38.2 -28.84,-0.1 -26.84,1073.3 847.09,2005.2 1815.75,2362.2 28.6,10.6 31.2,-79.8 10.2,-92.2 -399.81,-237.6 -796.5,-434.8 -1130.23,-768.4 -402.3,-402.1 -665.27,-925.3 -666.88,-1501.5 z m -426.31,-681.4 c 0.14,0.1 0.28,0.2 0.42,0.4 84.61,71.6 162.78,112.4 254.23,121.2 45.06,4.3 93.11,1.5 147.23,-10.5 86.43,-19.1 168.5,-54.7 244.36,-100.7 220.82,-133.8 378.05,-221.3 637.51,-111.5 325.68,137.7 638.89,360.8 939.67,545.7 -102.6,-63.9 -45.5,-242 68.2,-283.2 113.6,-41.2 238.5,7.9 347.4,60.6 502.2,243 959.3,578.7 1341.4,985.2 189.1,-318.1 505.9,-557.9 863.4,-653.3 121.6,-32.4 248.1,-49.1 364.5,-96.8 242.9,-99.9 378.6,-354.6 433.1,-603.9 5.9,-27 11.1,-54 15.1,-80.6 136.4,108.7 218.5,270.9 282.4,433.1 181.2,459.9 254.9,979.7 186.6,1475.6 -31.3,227.1 -92.4,449.2 -186.7,658.3 -149.9,332.3 -386.7,620.6 -692.1,821.5 -371.7,244.5 -753,341.4 -1192,388.6 -22.7,2.4 -45.3,4.9 -68.3,7 -727,69.3 -1463.2,-17.7 -2169.66,-193.2 -28.66,-7.1 -56.54,-14.8 -84.35,-22.4 -545.18,-150.4 -931.09,-409.6 -1250.09,-894.2 -225.57,-342.7 -412.26,-714.9 -513.28,-1112.1 -4.51,-17.7 -9.83,-35.2 -13.98,-53 -97.39,-417.3 -103.75,-879.9 44.94,-1281.8"
         style="fill:#482c5d;fill-opacity:1;fill-rule:nonzero;stroke:none"
         id="path44" />
      <path
         d="m 11370.4,12815.5 c 68.6,25.8 138.9,28.1 198.3,6.6 46.8,-17 81.8,-46.5 98.5,-83.1 14.7,-32.3 14.7,-68 0.1,-106.2 -48.3,-125.4 -208,-120.1 -274.5,-111.9 -21,2.7 -40.9,-12.6 -43.6,-34 -2.5,-21.5 12.7,-41 34.2,-43.6 24.5,-3 48.1,-4.5 70.7,-4.5 142.3,0 244.8,58.5 286.1,165.9 22.3,57.7 21.6,115.4 -1.8,166.7 -25.5,55.9 -76.3,100 -143.1,124.2 -76.8,27.8 -166.4,25.4 -252.4,-6.9 -20.2,-7.6 -30.5,-30.2 -22.8,-50.4 7.5,-20.2 30.2,-30.4 50.3,-22.8"
         style="fill:#f1947f;fill-opacity:1;fill-rule:nonzero;stroke:none"
         id="path46" />
      <path
         d="m 12417.4,13708.2 1.2,0.2 c 48.3,8.5 103.2,8.9 157.3,6.1 54.4,-2.8 109.3,-9.5 163.7,-18.6 54.4,-9 108.6,-20.6 161.3,-35.3 52,-14.8 105.5,-33.2 145.5,-58.3 l 2.8,-1.8 c 17,-10.6 39.5,-6.1 50.9,10.5 11.8,17.2 7.5,40.5 -9.6,52.3 -54.7,37.7 -109.6,57.3 -165.3,76.4 -55.7,18.3 -111.9,32.8 -168.8,45 -56.9,12 -114.4,21.6 -173,27.3 -58.8,5.4 -118,8.6 -182,0.3 l -2.4,-0.4 c -28.7,-5.1 -47.8,-32.5 -42.7,-61.1 5.1,-28.6 32.5,-47.7 61.1,-42.6"
         style="fill:#482c5d;fill-opacity:1;fill-rule:nonzero;stroke:none"
         id="path48" />
      <path
         d="m 10385.3,13734.6 c 54.1,0 108.9,-3.1 156.7,-14 l 1.4,-0.4 2.2,-0.4 c 28.6,-5.2 56.1,13.8 61.2,42.4 5.2,28.7 -13.8,56.1 -42.4,61.2 -63.5,11.5 -122.8,11.4 -181.7,8.9 -58.9,-2.7 -116.7,-9.4 -174.2,-18.6 -57.4,-9.2 -114.3,-20.9 -170.9,-36.4 -56.58,-16.3 -112.37,-33.1 -168.88,-67.9 -17,-10.6 -22.92,-32.8 -13.06,-50.4 10.14,-18.1 33.03,-24.6 51.14,-14.4 l 2.82,1.5 c 41.24,23.1 95.58,38.8 148.28,50.9 53.4,12.2 108.1,20.9 162.9,27.3 54.8,6.3 110,10.2 164.5,10.3"
         style="fill:#482c5d;fill-opacity:1;fill-rule:nonzero;stroke:none"
         id="path50" />
      <path
         d="m 11520.8,11517.3 c 136,-2.4 271.3,52.6 374.4,139.9 84.7,71.7 128.2,158.7 169.3,259.6 40.9,100.2 -26.2,113.1 -101,109.8 -38.6,-1.8 -79.3,-7.9 -108.2,-8.6 -100.2,-2.4 -200.4,-0.2 -300.6,4 -200.4,8.4 -400.4,25.8 -600.9,34.2 -117.4,5 -66.9,-115.6 -39,-183.9 101.2,-247.3 392.3,-351.4 606,-355"
         style="fill:#ffffff;fill-opacity:1;fill-rule:nonzero;stroke:none"
         id="path52" />
      <path
         d="m 10200.5,13164.6 c 0.3,41.9 28.4,75.6 62.6,75.4 34.3,-0.3 61.8,-34.5 61.5,-76.4 -0.4,-41.9 -28.4,-75.6 -62.7,-75.4 -34.2,0.3 -61.7,34.5 -61.4,76.4 z m 137.6,-330.2 c 103.4,-0.8 188,101.1 189,227.6 1,126.5 -82,229.7 -185.4,230.5 -103.4,0.8 -188,-101.1 -189,-227.6 -1,-126.4 82,-229.7 185.4,-230.5"
         style="fill:#482c5d;fill-opacity:1;fill-rule:nonzero;stroke:none"
         id="path54" />
      <path
         d="m 10324.6,13163.6 c 0.3,41.9 -27.2,76.1 -61.5,76.4 -34.2,0.2 -62.3,-33.5 -62.6,-75.4 -0.3,-41.9 27.2,-76.1 61.4,-76.4 34.3,-0.2 62.3,33.5 62.7,75.4"
         style="fill:#ffffff;fill-opacity:1;fill-rule:nonzero;stroke:none"
         id="path56" />
      <path
         d="m 12656.1,13069.3 c -34.3,0.2 -61.8,34.4 -61.4,76.3 0.3,42 28.3,75.7 62.6,75.4 34.2,-0.2 61.7,-34.4 61.4,-76.3 -0.3,-42 -28.3,-75.7 -62.6,-75.4 z m 79.8,204.3 c -103.4,0.8 -188.1,-101.1 -189.1,-227.6 -1,-126.5 82.1,-229.7 185.4,-230.5 103.5,-0.8 188.1,101 189.1,227.5 1,126.5 -82,229.8 -185.4,230.6"
         style="fill:#482c5d;fill-opacity:1;fill-rule:nonzero;stroke:none"
         id="path58" />
      <path
         d="m 12657.3,13221 c -34.3,0.3 -62.3,-33.4 -62.6,-75.4 -0.4,-41.9 27.1,-76.1 61.4,-76.3 34.3,-0.3 62.3,33.4 62.6,75.4 0.3,41.9 -27.2,76.1 -61.4,76.3"
         style="fill:#ffffff;fill-opacity:1;fill-rule:nonzero;stroke:none"
         id="path60" />
      <path
         d="m 12896.8,8590.4 c -65.4,-52 -124.6,-108.5 -174.3,-163.7 -237.3,-263.1 -313.5,-635.3 -319.7,-989.5 -8.4,-474.5 92.7,-943.7 251.5,-1388.9 78.7,-220.5 171.6,-435.7 273.2,-646.5 85.1,-176.5 166.8,-423.2 320,-550.7 105.3,-87.6 262.8,-45.1 391.2,2.6 275.3,102.2 543.5,212.1 805.6,332.8 351.8,161.9 692.1,344.6 1022.6,555.4 51,32.5 102.1,64.6 152.7,98.6 96.6,64.9 201.3,152.4 197.9,268.7 -1.7,56.1 -29.3,107.7 -56.2,156.9 -260.1,476.1 -585.1,868.8 -919.7,1297.3 -233.7,295.3 -390.7,541.9 -658.2,808.6 -194.1,193.5 -316.6,372.1 -598.7,511 -1,0.5 -2.3,0.6 -3.3,1.1 -169.2,78.1 -525.6,-167.2 -684.6,-293.7"
         style="fill:#8b72c0;fill-opacity:1;fill-rule:nonzero;stroke:none"
         id="path62" />
      <path
         d="m 7112.6,4096.3 c 137.15,267.4 278.56,534.2 423.19,800.5 44.79,83.7 90.65,168 136.5,251.7 -204.2,77.4 -396.67,162.1 -432.5,176.6 -497.84,202.2 -972.7,423.9 -1413.35,728.1 -0.15,-0.4 -0.3,-0.7 -0.44,-1.1 -163.83,-384.7 -322.86,-772.7 -476.52,-1165.4 -171.33,-439.7 -336.2,-884.8 -486.16,-1345.9 -19.74,-60.8 -39.49,-121.6 -58.15,-183 469.58,-376.2 976,-707.1 1513.37,-987.2 66.72,175.5 141.98,355.4 221.46,535.7 174.49,395.5 369.81,793.6 572.6,1190"
         style="fill:#fbc1ab;fill-opacity:1;fill-rule:nonzero;stroke:none"
         id="path64" />
      <path
         d="m 7672.29,5148.5 c 244.74,-92.9 506.32,-175.3 535.55,-114.2 249.11,522.6 439.4,1074.4 603.46,1628.9 139.27,470.7 453.89,1190.2 184.82,1655.4 -124.99,216 -289.93,411.7 -495.78,553 -71.69,49.2 -141.78,89.8 -210.72,121.6 -260.61,120.2 -206.82,296.9 -380.45,199.3 -26.7,-15 -58.39,-36 -97.84,-65.2 -354.52,-262.4 -930.19,-882.7 -1171.25,-1192.7 -363.88,-467.9 -696.64,-862 -986.88,-1392 -43.13,-78.7 -86.49,-168 -63.23,-254.8 20.56,-76.6 87.94,-130.1 152.28,-176.6 27.76,-20.1 56.14,-38.7 84.19,-58 440.65,-304.2 915.51,-525.9 1413.35,-728.1 35.83,-14.5 228.3,-99.2 432.5,-176.6"
         style="fill:#8b72c0;fill-opacity:1;fill-rule:nonzero;stroke:none"
         id="path66" />
      <path
         d="m 8093.03,12875.7 c -24.11,0 -46.45,-6.6 -66.29,-17.3 -44.04,-23.8 -74.34,-69.8 -74.34,-123.3 0,-77.7 62.97,-140.7 140.63,-140.7 63.4,0 116.33,42.2 133.9,99.8 3.97,13.1 6.73,26.6 6.73,40.9 0,77.6 -62.94,140.6 -140.63,140.6"
         style="fill:#ffffff;fill-opacity:1;fill-rule:nonzero;stroke:none"
         id="path68" />
      <path
         d="m 10518.6,9015 c 61.2,-7 121.2,-10.5 180.1,-10.5 342.4,0 647.9,117.7 929.2,357.2 1.8,1.4 2.8,3.3 4.1,5.1 7.6,10.4 7.9,24.7 -0.8,35 -3,3.5 -6.7,5.8 -10.7,7.5 -9.6,4 -21,2.9 -29.5,-4.3 -1.2,-0.9 -2.3,-1.8 -3.5,-2.8 -320.5,-271.5 -658.4,-376.6 -1062.4,-330.7 -382.4,43.5 -723.15,210.8 -936.56,459.5 -1.45,1.7 -3.05,3.3 -4.5,5 -10.15,11.9 -28.11,13.5 -40.14,3.3 -9.9,-8.4 -12.18,-21.9 -7.14,-33.2 1.07,-2.4 2.05,-4.9 3.83,-7 222.38,-262.3 578.91,-438.8 978.01,-484.1"
         style="fill:#ffffff;fill-opacity:1;fill-rule:nonzero;stroke:none"
         id="path70" />
      <path
         d="m 9734.42,8778.6 c 21.23,-47.8 42.91,-97.6 65.29,-149.1 108.35,-249.6 231.19,-532.5 375.89,-738.4 l 27.5,-39.2 c 169.1,-242.2 434.4,-622.1 832,-622.1 73.2,0 150.8,12.9 233.1,41.8 339.2,119.3 435.4,589 487,841.3 36.3,177 61.5,348.3 77.7,525.2 17.5,191.9 23.9,391.4 20.1,612 -0.4,21.4 -0.4,41.9 -0.9,63.6 -0.4,15.7 -11.1,27.9 -29.2,27.8 -15.7,-0.5 -28.2,-13.5 -27.8,-29.2 0.4,-13.3 0.3,-25.7 0.6,-38.8 4.7,-232.2 -1.8,-440.1 -20.5,-640.2 -16,-171.3 -40.6,-337.5 -75.7,-509 -49.4,-241.3 -141.4,-690.4 -450.2,-799 -488.8,-172 -796.2,268 -999.5,559.2 l -27.6,39.4 c -141.4,201.1 -262.96,481.1 -370.22,728.2 -16.66,38.4 -32.87,75.6 -48.88,112 -8.48,19.3 -17.02,38.7 -25.32,57.3 l -296.16,661.7 -20.59,46 c -6.46,14.3 -23.15,20.8 -37.64,14.4 -14.38,-6.5 -20.78,-23.3 -14.38,-37.7 l 19.08,-42.6 297.68,-665 c 2.84,-6.4 5.79,-13.2 8.65,-19.6"
         style="fill:#ffffff;fill-opacity:1;fill-rule:nonzero;stroke:none"
         id="path72" />
      <path
         d="m 11500.4,15888.3 c -163.2,-257.7 -312.3,-515.3 -510.8,-749 -201.9,-237.7 -446.8,-423.9 -664.7,-643.9 -9.3,-9.3 -8.9,-64.3 10.6,-54.8 509.4,246.9 970.3,862.2 1191.3,1371 7.6,17.5 -4.9,110.7 -26.4,76.7"
         style="fill:#58356f;fill-opacity:1;fill-rule:nonzero;stroke:none"
         id="path74" />
      <path
         d="m 11935.3,15964.9 c -8.3,33.1 -23.4,-5.8 -21.6,-21.5 37.3,-326.4 233.3,-569.5 488.9,-766 352.6,-271.2 717.3,-448.7 1008.5,-797.6 25.8,-30.8 31.7,58.5 24,73.5 -339.9,662.6 -1305.7,731.7 -1499.8,1511.6"
         style="fill:#58356f;fill-opacity:1;fill-rule:nonzero;stroke:none"
         id="path76" />
      <path
         d="m 13773.2,14430.5 c -1,-7.5 7.9,-40.8 15.8,-20.6 176.1,454.9 -65.2,989.9 -320.9,1366.2 -301.8,444.2 -773,859.7 -1304.9,987.6 -23.1,5.6 -23.4,-71.4 -4.6,-80.8 868.1,-436.6 1767.4,-1157.1 1614.6,-2252.4"
         style="fill:#58356f;fill-opacity:1;fill-rule:nonzero;stroke:none"
         id="path78" />
      <path
         d="m 11247.6,16629.5 c 3.8,7.3 -2.4,41.4 -9.4,29.6 -586.2,-976.7 -1826.9,-1432.8 -2183.56,-2564.6 -6.52,-20.7 16.32,-96.6 30.97,-53.8 383.34,1120.8 1631.19,1565.5 2161.99,2588.8"
         style="fill:#58356f;fill-opacity:1;fill-rule:nonzero;stroke:none"
         id="path80" />
      <path
         d="m 10151.6,16651 c 21,12.4 18.4,102.8 -10.2,92.2 -968.66,-357 -1842.59,-1288.9 -1815.75,-2362.2 0.95,-38.1 28.73,-38.6 28.84,0.1 1.61,576.2 264.58,1099.4 666.88,1501.5 333.73,333.6 730.42,530.8 1130.23,768.4"
         style="fill:#58356f;fill-opacity:1;fill-rule:nonzero;stroke:none"
         id="path82" />
      <path
         d="m 10420,17392.5 c 19.2,8.9 20.3,83.9 -5.3,83 -363.8,-12.9 -247.9,669 -202.2,868.4 3.8,16.8 -9.8,100.2 -29.8,55.1 -91.8,-207.6 -103.1,-454.1 -63.9,-675.8 25.8,-146.3 98.1,-425.1 301.2,-330.7"
         style="fill:#58356f;fill-opacity:1;fill-rule:nonzero;stroke:none"
         id="path84" />
      <path
         d="m 11246.4,17666.4 c -5.1,-16.1 9.8,-82.5 26.1,-45.7 137.2,309.4 115.6,828.9 -176.8,1051.5 -23.5,17.9 -19.4,-66.8 -13.1,-77.3 181.7,-306.2 276.6,-570.1 163.8,-928.5"
         style="fill:#58356f;fill-opacity:1;fill-rule:nonzero;stroke:none"
         id="path86" />
      <path
         d="m 7297.18,11917.6 c -28.31,61.4 -49.7,93.8 -82.71,153.5 -102.82,186.2 -124.09,232.8 -121.53,471.7 2.56,238.4 11.93,299.4 135.59,479.2 51.23,74.5 110.72,143.4 169.01,212.3 13.47,15.9 4.02,92.4 -16.53,69.1 -286.68,-325.7 -513.19,-696.8 -299.5,-1122.8 165.75,-330.4 330.55,-594.3 301.63,-983.2 -27.33,-367.7 -190.79,-679.7 -440.22,-944.3 -17.19,-18.3 -3.55,-109.7 16.93,-91.4 332.36,295.5 489.34,747 471.48,1186.7 -7.94,195.6 -52.06,391.1 -134.15,569.2"
         style="fill:#58356f;fill-opacity:1;fill-rule:nonzero;stroke:none"
         id="path88" />
      <path
         d="m 8048.54,12231.6 c 5.9,15.1 -4.5,102.4 -23.08,71.5 -144.07,-238.8 -128.38,-520.7 -67.09,-784.6 52.5,-226.2 153.59,-437.6 209.84,-662.7 95.13,-380.7 -18.22,-705.6 -197.93,-1033 -9.69,-17.7 6.34,-93.6 22.8,-66.3 159.34,263.9 289.35,538.5 275.2,853.6 -25.31,563.5 -444.55,1045.9 -219.74,1621.5"
         style="fill:#58356f;fill-opacity:1;fill-rule:nonzero;stroke:none"
         id="path90" />
      <path
         d="m 9047.68,10860.9 c 32.24,-294.4 176.7,-604.1 90.22,-900.9 -5.33,-18.4 12.38,-95.1 29.97,-52.5 120.8,292.5 7.89,703.3 -84.24,989.5 -17.54,54.5 -38.88,-9.4 -35.95,-36.1"
         style="fill:#58356f;fill-opacity:1;fill-rule:nonzero;stroke:none"
         id="path92" />
      <path
         d="m 12365.6,10789.5 c -85.2,-325.8 -74.3,-696.8 -38.3,-1029.1 6.1,-56.2 44.2,-32 42.2,13.5 -14.9,334.9 14.4,660.4 29,993.9 1.1,25.5 -21.4,65.7 -32.9,21.7"
         style="fill:#58356f;fill-opacity:1;fill-rule:nonzero;stroke:none"
         id="path94" />
      <path
         d="m 14433.1,9717.9 c -401.4,105.5 -752.5,364.7 -945.2,735.9 -259.1,499.1 -73.4,1029.2 -84.2,1557.2 -0.8,39.9 -33.1,69.4 -38.8,12.5 -52.2,-520.3 -171.2,-1096 52.7,-1592.7 189,-419.4 566,-716.6 1015.9,-801.8 23.5,-4.5 27.2,81.7 -0.4,88.9"
         style="fill:#58356f;fill-opacity:1;fill-rule:nonzero;stroke:none"
         id="path96" />
      <path
         d="m 13946.7,12496.6 c -31.6,-234.6 -9.2,-475.9 64.6,-700.7 193.4,-588.4 803.8,-870.8 1032.7,-1434.1 15.6,-38.5 32.2,31.8 26.6,48.6 -213.9,644.1 -926.2,933.9 -1059.7,1628.4 -87.7,456 139.6,808.5 219.8,1236.8 39.3,210 38.7,430.7 -75.3,616.3 -19.4,31.6 -26.8,-58.8 -22.1,-71.7 177.9,-489.6 -124.3,-860.8 -186.6,-1323.6"
         style="fill:#58356f;fill-opacity:1;fill-rule:nonzero;stroke:none"
         id="path98" />
      <path
         d="m 13121.9,3155.7 c -172,28 -347,9.9 -520.2,35.7 -185.9,27.7 -354.3,100.7 -533.7,152 -291,83.4 -659.3,94.8 -901.2,-111.6 -8.3,-7.1 -13.2,-60.6 3.1,-59 148.3,14.4 286,76.8 436,90.1 176.4,15.6 343.9,-14.2 511.9,-66.8 331.1,-103.7 656.3,-195.6 1004.4,-109.4 17.3,4.3 17.8,66 -0.3,69"
         style="fill:#7f68bb;fill-opacity:1;fill-rule:nonzero;stroke:none"
         id="path100" />
    </g>
  </g>
</svg>
